<?xml version="1.0" encoding="utf-8" ?>
<svg baseProfile="full" height="140" version="1.1" width="176" xmlns="http://www.w3.org/2000/svg" xmlns:ev="http://www.w3.org/2001/xml-events" xmlns:xlink="http://www.w3.org/1999/xlink"><defs /><rect fill="#c06000" height="28" stroke="lightgray" width="36" x="0" y="0" /><text fill="#ffffff" style="text-anchor:middle; dominant-baseline:central" x="18.0" y="14.0">3V3</text><rect fill="#ffffff" height="28" stroke="lightgray" width="36" x="0" y="28" /><text fill="#000000" style="text-anchor:middle; dominant-baseline:central" x="18.0" y="42.0">G22</text><rect fill="#ffffff" height="28" stroke="lightgray" width="36" x="140" y="28" /><text fill="#000000" style="text-anchor:middle; dominant-baseline:central" x="158.0" y="42.0">G21</text><rect fill="#ff1010" height="28" stroke="lightgray" width="52" x="88" y="28" /><text fill="#ffffff" style="font-size:80%; text-anchor:middle; dominant-baseline:central" x="114.0" y="42.0">SCL</text><rect fill="#ffffff" height="28" stroke="lightgray" width="36" x="0" y="56" /><text fill="#000000" style="text-anchor:middle; dominant-baseline:central" x="18.0" y="70.0">G19</text><rect fill="#ffffff" height="28" stroke="lightgray" width="36" x="140" y="56" /><text fill="#000000" style="text-anchor:middle; dominant-baseline:central" x="158.0" y="70.0">G25</text><rect fill="#ff1010" height="28" stroke="lightgray" width="52" x="88" y="56" /><text fill="#ffffff" style="font-size:80%; text-anchor:middle; dominant-baseline:central" x="114.0" y="70.0">SDA</text><rect fill="#ffffff" height="28" stroke="lightgray" width="36" x="0" y="84" /><text fill="#000000" style="text-anchor:middle; dominant-baseline:central" x="18.0" y="98.0">G23</text><rect fill="#e00000" height="28" stroke="lightgray" width="36" x="140" y="84" /><text fill="#ffffff" style="text-anchor:middle; dominant-baseline:central" x="158.0" y="98.0">5V</text><rect fill="#ffffff" height="28" stroke="lightgray" width="36" x="0" y="112" /><text fill="#000000" style="text-anchor:middle; dominant-baseline:central" x="18.0" y="126.0">G33</text><rect fill="black" height="28" stroke="lightgray" width="36" x="140" y="112" /><text fill="white" style="text-anchor:middle; dominant-baseline:central" x="158.0" y="126.0">GND</text></svg>